<svg version="1.1" viewBox="0.0 0.0 600.0 371.0" fill="none" stroke="none" stroke-linecap="square" stroke-miterlimit="10" width="600" height="371" xmlns:xlink="http://www.w3.org/1999/xlink" xmlns="http://www.w3.org/2000/svg"><path fill="#ffffff" d="M0 0L600.0 0L600.0 371.0L0 371.0L0 0Z" fill-rule="nonzero"/><path stroke="#333333" stroke-width="1.0" stroke-linecap="butt" d="M45.5 332.5L581.5 332.5" fill-rule="nonzero"/><path stroke="#cccccc" stroke-width="1.0" stroke-linecap="butt" d="M45.5 271.5L581.5 271.5" fill-rule="nonzero"/><path stroke="#cccccc" stroke-width="1.0" stroke-linecap="butt" d="M45.5 209.5L581.5 209.5" fill-rule="nonzero"/><path stroke="#cccccc" stroke-width="1.0" stroke-linecap="butt" d="M45.5 148.5L581.5 148.5" fill-rule="nonzero"/><path stroke="#cccccc" stroke-width="1.0" stroke-linecap="butt" d="M45.5 86.5L581.5 86.5" fill-rule="nonzero"/><path stroke="#cccccc" stroke-width="1.0" stroke-linecap="butt" d="M45.5 25.5L581.5 25.5" fill-rule="nonzero"/><clipPath id="id_0"><path d="M45.55 25.55L581.45 25.55L581.45 332.45L45.55 332.45L45.55 25.55Z" clip-rule="nonzero"/></clipPath><path stroke="#000000" stroke-width="2.0" stroke-linecap="butt" stroke-opacity="0.0" clip-path="url(#id_0)" d="M206.0 332.0L102.0 332.0L102.0 308.0C102.0 306.89542 102.89543 306.0 104.0 306.0L204.0 306.0C205.10457 306.0 206.0 306.89542 206.0 308.0Z" fill-rule="nonzero"/><path fill="#4285f4" clip-path="url(#id_0)" d="M206.0 332.0L102.0 332.0L102.0 308.0C102.0 306.89542 102.89543 306.0 104.0 306.0L204.0 306.0C205.10457 306.0 206.0 306.89542 206.0 308.0Z" fill-rule="nonzero"/><path stroke="#000000" stroke-width="2.0" stroke-linecap="butt" stroke-opacity="0.0" clip-path="url(#id_0)" d="M366.0 332.0L262.0 332.0L262.0 218.0C262.0 216.89543 262.89542 216.0 264.0 216.0L364.0 216.0C365.10458 216.0 366.0 216.89543 366.0 218.0Z" fill-rule="nonzero"/><path fill="#4285f4" clip-path="url(#id_0)" d="M366.0 332.0L262.0 332.0L262.0 218.0C262.0 216.89543 262.89542 216.0 264.0 216.0L364.0 216.0C365.10458 216.0 366.0 216.89543 366.0 218.0Z" fill-rule="nonzero"/><path stroke="#000000" stroke-width="2.0" stroke-linecap="butt" stroke-opacity="0.0" clip-path="url(#id_0)" d="M525.0 332.0L421.0 332.0L421.0 58.0C421.0 56.89543 421.89542 56.0 423.0 56.0L523.0 56.0C524.10455 56.0 525.0 56.89543 525.0 58.0Z" fill-rule="nonzero"/><path fill="#4285f4" clip-path="url(#id_0)" d="M525.0 332.0L421.0 332.0L421.0 58.0C421.0 56.89543 421.89542 56.0 423.0 56.0L523.0 56.0C524.10455 56.0 525.0 56.89543 525.0 58.0Z" fill-rule="nonzero"/><path fill="#000000" d="M33.05 332.21564Q33.05 330.6844 33.3625 329.7625Q33.675 328.825 34.284374 328.325Q34.909374 327.825 35.846874 327.825Q36.534374 327.825 37.05 328.10626Q37.58125 328.3875 37.925 328.91876Q38.26875 329.4344 38.45625 330.1844Q38.64375 330.9344 38.64375 332.21564Q38.64375 333.73126 38.33125 334.65314Q38.034374 335.575 37.409374 336.09064Q36.8 336.59064 35.846874 336.59064Q34.6125 336.59064 33.89375 335.7Q33.05 334.6375 33.05 332.21564ZM34.128124 332.21564Q34.128124 334.325 34.628124 335.02814Q35.128124 335.73126 35.846874 335.73126Q36.58125 335.73126 37.065624 335.02814Q37.565624 334.325 37.565624 332.21564Q37.565624 330.09064 37.065624 329.40314Q36.58125 328.7 35.83125 328.7Q35.1125 328.7 34.675 329.3094Q34.128124 330.09064 34.128124 332.21564Z" fill-rule="nonzero"/><path fill="#000000" d="M30.01875 275.07L28.971874 275.07L28.971874 268.35126Q28.58125 268.71063 27.95625 269.08563Q27.346874 269.445 26.8625 269.61688L26.8625 268.60126Q27.7375 268.17938 28.39375 267.60126Q29.065624 267.0075 29.346874 266.445L30.01875 266.445L30.01875 275.07ZM33.05 270.83563Q33.05 269.30438 33.3625 268.3825Q33.675 267.445 34.284374 266.945Q34.909374 266.445 35.846874 266.445Q36.534374 266.445 37.05 266.72626Q37.58125 267.0075 37.925 267.53876Q38.26875 268.05438 38.45625 268.80438Q38.64375 269.55438 38.64375 270.83563Q38.64375 272.35126 38.33125 273.27313Q38.034374 274.195 37.409374 274.71063Q36.8 275.21063 35.846874 275.21063Q34.6125 275.21063 33.89375 274.32Q33.05 273.2575 33.05 270.83563ZM34.128124 270.83563Q34.128124 272.945 34.628124 273.64813Q35.128124 274.35126 35.846874 274.35126Q36.58125 274.35126 37.065624 273.64813Q37.565624 272.945 37.565624 270.83563Q37.565624 268.71063 37.065624 268.02313Q36.58125 267.32 35.83125 267.32Q35.1125 267.32 34.675 267.92938Q34.128124 268.71063 34.128124 270.83563Z" fill-rule="nonzero"/><path fill="#000000" d="M31.596874 212.67438L31.596874 213.69L25.909374 213.69Q25.909374 213.315 26.034374 212.95563Q26.253124 212.3775 26.721874 211.815Q27.20625 211.2525 28.1125 210.51813Q29.51875 209.36188 30.003124 208.69Q30.503124 208.01813 30.503124 207.42438Q30.503124 206.79938 30.05 206.3775Q29.596874 205.94 28.878124 205.94Q28.1125 205.94 27.659374 206.39313Q27.20625 206.84625 27.190624 207.65875L26.1125 207.54938Q26.221874 206.33063 26.940624 205.70563Q27.675 205.065 28.909374 205.065Q30.14375 205.065 30.8625 205.7525Q31.58125 206.44 31.58125 207.45563Q31.58125 207.97125 31.3625 208.47125Q31.159374 208.95563 30.659374 209.51813Q30.175 210.065 29.05 211.01813Q28.096874 211.815 27.815624 212.11188Q27.55 212.39313 27.378124 212.67438L31.596874 212.67438ZM33.05 209.45563Q33.05 207.92438 33.3625 207.0025Q33.675 206.065 34.284374 205.565Q34.909374 205.065 35.846874 205.065Q36.534374 205.065 37.05 205.34625Q37.58125 205.6275 37.925 206.15875Q38.26875 206.67438 38.45625 207.42438Q38.64375 208.17438 38.64375 209.45563Q38.64375 210.97125 38.33125 211.89313Q38.034374 212.815 37.409374 213.33063Q36.8 213.83063 35.846874 213.83063Q34.6125 213.83063 33.89375 212.94Q33.05 211.8775 33.05 209.45563ZM34.128124 209.45563Q34.128124 211.565 34.628124 212.26813Q35.128124 212.97125 35.846874 212.97125Q36.58125 212.97125 37.065624 212.26813Q37.565624 211.565 37.565624 209.45563Q37.565624 207.33063 37.065624 206.64313Q36.58125 205.94 35.83125 205.94Q35.1125 205.94 34.675 206.54938Q34.128124 207.33063 34.128124 209.45563Z" fill-rule="nonzero"/><path fill="#000000" d="M26.05 150.04437L27.1125 149.90375Q27.284374 150.79437 27.721874 151.20062Q28.159374 151.59125 28.784374 151.59125Q29.534374 151.59125 30.05 151.07562Q30.565624 150.56 30.565624 149.79437Q30.565624 149.07562 30.08125 148.60687Q29.6125 148.1225 28.878124 148.1225Q28.58125 148.1225 28.128124 148.2475L28.253124 147.31Q28.3625 147.32562 28.425 147.32562Q29.096874 147.32562 29.628124 146.98187Q30.175 146.6225 30.175 145.88812Q30.175 145.31 29.784374 144.935Q29.39375 144.54437 28.76875 144.54437Q28.159374 144.54437 27.7375 144.935Q27.33125 145.32562 27.221874 146.09125L26.159374 145.90375Q26.346874 144.85687 27.034374 144.27875Q27.721874 143.685 28.7375 143.685Q29.440624 143.685 30.034374 143.9975Q30.628124 144.29437 30.940624 144.81Q31.253124 145.32562 31.253124 145.91937Q31.253124 146.46625 30.95625 146.935Q30.659374 147.38812 30.08125 147.65375Q30.83125 147.82562 31.253124 148.38812Q31.675 148.935 31.675 149.77875Q31.675 150.90375 30.846874 151.685Q30.034374 152.46625 28.784374 152.46625Q27.659374 152.46625 26.909374 151.79437Q26.159374 151.10687 26.05 150.04437ZM33.05 148.07562Q33.05 146.54437 33.3625 145.6225Q33.675 144.685 34.284374 144.185Q34.909374 143.685 35.846874 143.685Q36.534374 143.685 37.05 143.96625Q37.58125 144.2475 37.925 144.77875Q38.26875 145.29437 38.45625 146.04437Q38.64375 146.79437 38.64375 148.07562Q38.64375 149.59125 38.33125 150.51312Q38.034374 151.435 37.409374 151.95062Q36.8 152.45062 35.846874 152.45062Q34.6125 152.45062 33.89375 151.56Q33.05 150.4975 33.05 148.07562ZM34.128124 148.07562Q34.128124 150.185 34.628124 150.88812Q35.128124 151.59125 35.846874 151.59125Q36.58125 151.59125 37.065624 150.88812Q37.565624 150.185 37.565624 148.07562Q37.565624 145.95062 37.065624 145.26312Q36.58125 144.56 35.83125 144.56Q35.1125 144.56 34.675 145.16937Q34.128124 145.95062 34.128124 148.07562Z" fill-rule="nonzero"/><path fill="#000000" d="M29.425 90.93L29.425 88.8675L25.70625 88.8675L25.70625 87.89875L29.628124 82.33625L30.4875 82.33625L30.4875 87.89875L31.64375 87.89875L31.64375 88.8675L30.4875 88.8675L30.4875 90.93L29.425 90.93ZM29.425 87.89875L29.425 84.039375L26.7375 87.89875L29.425 87.89875ZM33.05 86.695625Q33.05 85.164375 33.3625 84.2425Q33.675 83.305 34.284374 82.805Q34.909374 82.305 35.846874 82.305Q36.534374 82.305 37.05 82.58625Q37.58125 82.8675 37.925 83.39875Q38.26875 83.914375 38.45625 84.664375Q38.64375 85.414375 38.64375 86.695625Q38.64375 88.21125 38.33125 89.133125Q38.034374 90.055 37.409374 90.570625Q36.8 91.070625 35.846874 91.070625Q34.6125 91.070625 33.89375 90.18Q33.05 89.1175 33.05 86.695625ZM34.128124 86.695625Q34.128124 88.805 34.628124 89.508125Q35.128124 90.21125 35.846874 90.21125Q36.58125 90.21125 37.065624 89.508125Q37.565624 88.805 37.565624 86.695625Q37.565624 84.570625 37.065624 83.883125Q36.58125 83.18 35.83125 83.18Q35.1125 83.18 34.675 83.789375Q34.128124 84.570625 34.128124 86.695625Z" fill-rule="nonzero"/><path fill="#000000" d="M26.05 27.3L27.159374 27.20625Q27.284374 28.01875 27.721874 28.425Q28.175 28.83125 28.815624 28.83125Q29.565624 28.83125 30.096874 28.253124Q30.628124 27.675 30.628124 26.7375Q30.628124 25.83125 30.1125 25.315624Q29.6125 24.784374 28.784374 24.784374Q28.284374 24.784374 27.8625 25.01875Q27.45625 25.253124 27.221874 25.6125L26.2375 25.4875L27.065624 21.08125L31.346874 21.08125L31.346874 22.08125L27.909374 22.08125L27.45625 24.39375Q28.221874 23.846874 29.065624 23.846874Q30.190624 23.846874 30.95625 24.628124Q31.7375 25.409374 31.7375 26.64375Q31.7375 27.8 31.065624 28.659374Q30.2375 29.690624 28.815624 29.690624Q27.64375 29.690624 26.89375 29.034374Q26.159374 28.378124 26.05 27.3ZM33.05 25.315624Q33.05 23.784374 33.3625 22.8625Q33.675 21.925 34.284374 21.425Q34.909374 20.925 35.846874 20.925Q36.534374 20.925 37.05 21.20625Q37.58125 21.4875 37.925 22.01875Q38.26875 22.534374 38.45625 23.284374Q38.64375 24.034374 38.64375 25.315624Q38.64375 26.83125 38.33125 27.753124Q38.034374 28.675 37.409374 29.190624Q36.8 29.690624 35.846874 29.690624Q34.6125 29.690624 33.89375 28.8Q33.05 27.7375 33.05 25.315624ZM34.128124 25.315624Q34.128124 27.425 34.628124 28.128124Q35.128124 28.83125 35.846874 28.83125Q36.58125 28.83125 37.065624 28.128124Q37.565624 27.425 37.565624 25.315624Q37.565624 23.190624 37.065624 22.503124Q36.58125 21.8 35.83125 21.8Q35.1125 21.8 34.675 22.409374Q34.128124 23.190624 34.128124 25.315624Z" fill-rule="nonzero"/><path fill="#000000" d="M114.32673 349.45L114.32673 340.85626L115.38923 340.85626L115.38923 345.7625L117.873604 343.23126L119.248604 343.23126L116.85798 345.52814L119.48298 349.45L118.186104 349.45L116.123604 346.2625L115.38923 346.98126L115.38923 349.45L114.32673 349.45ZM119.342354 351.84064L119.342354 351.075L126.342354 351.075L126.342354 351.84064L119.342354 351.84064ZM128.29547 349.45L127.311104 349.45L127.311104 340.85626L128.3736 340.85626L128.3736 343.91876Q129.04547 343.09064 130.07672 343.09064Q130.65485 343.09064 131.15485 343.325Q131.67047 343.54376 131.9986 343.96564Q132.34235 344.3875 132.52985 344.98126Q132.71735 345.575 132.71735 346.2469Q132.71735 347.84064 131.92047 348.71564Q131.1236 349.59064 130.02985 349.59064Q128.92047 349.59064 128.29547 348.66876L128.29547 349.45ZM128.27985 346.29376Q128.27985 347.40314 128.59235 347.90314Q129.09235 348.71564 129.9361 348.71564Q130.6236 348.71564 131.1236 348.1219Q131.63922 347.52814 131.63922 346.325Q131.63922 345.10626 131.15485 344.52814Q130.67047 343.95 129.98297 343.95Q129.29547 343.95 128.77985 344.5594Q128.27985 345.15314 128.27985 346.29376ZM133.9361 346.34064Q133.9361 344.60626 134.88922 343.77814Q135.6861 343.09064 136.84235 343.09064Q138.1236 343.09064 138.9361 343.9344Q139.76422 344.7625 139.76422 346.2469Q139.76422 347.45 139.40485 348.1375Q139.04547 348.825 138.34235 349.21564Q137.65485 349.59064 136.84235 349.59064Q135.54547 349.59064 134.73297 348.7625Q133.9361 347.91876 133.9361 346.34064ZM135.01422 346.34064Q135.01422 347.52814 135.52985 348.1219Q136.0611 348.71564 136.84235 348.71564Q137.63922 348.71564 138.15485 348.1219Q138.67047 347.52814 138.67047 346.3094Q138.67047 345.15314 138.13922 344.5594Q137.6236 343.96564 136.84235 343.96564Q136.0611 343.96564 135.52985 344.5594Q135.01422 345.1375 135.01422 346.34064ZM145.38922 348.6844Q144.79547 349.1844 144.2486 349.3875Q143.71735 349.59064 143.09235 349.59064Q142.0611 349.59064 141.51422 349.09064Q140.96735 348.59064 140.96735 347.8094Q140.96735 347.35626 141.17047 346.98126Q141.3736 346.59064 141.71735 346.3719Q142.0611 346.1375 142.48297 346.02814Q142.77985 345.9344 143.42047 345.85626Q144.6861 345.71564 145.29547 345.4969Q145.29547 345.27814 145.29547 345.23126Q145.29547 344.575 144.9986 344.3094Q144.59235 343.96564 143.79547 343.96564Q143.0611 343.96564 142.70172 344.23126Q142.34235 344.48126 142.17047 345.1375L141.13922 344.9969Q141.27985 344.34064 141.60797 343.9344Q141.9361 343.52814 142.54547 343.3094Q143.15485 343.09064 143.95172 343.09064Q144.7486 343.09064 145.2486 343.27814Q145.7486 343.46564 145.98297 343.7469Q146.21735 344.02814 146.3111 344.46564Q146.35797 344.73126 146.35797 345.4344L146.35797 346.84064Q146.35797 348.3094 146.42047 348.7Q146.4986 349.09064 146.70172 349.45L145.59235 349.45Q145.4361 349.1219 145.38922 348.6844ZM145.29547 346.325Q144.71735 346.5594 143.57672 346.73126Q142.92047 346.825 142.65485 346.95Q142.38922 347.0594 142.23297 347.27814Q142.09235 347.4969 142.09235 347.77814Q142.09235 348.2 142.40485 348.48126Q142.73297 348.7625 143.34235 348.7625Q143.95172 348.7625 144.42047 348.4969Q144.90485 348.23126 145.1236 347.7625Q145.29547 347.40314 145.29547 346.71564L145.29547 346.325ZM148.3111 349.45L148.3111 343.23126L149.26422 343.23126L149.26422 344.16876Q149.6236 343.5125 149.92047 343.3094Q150.23297 343.09064 150.60797 343.09064Q151.13922 343.09064 151.6861 343.41876L151.32672 344.40314Q150.9361 344.16876 150.5611 344.16876Q150.20172 344.16876 149.92047 344.3875Q149.65485 344.59064 149.54547 344.96564Q149.35797 345.52814 149.35797 346.1844L149.35797 349.45L148.3111 349.45ZM156.35797 349.45L156.35797 348.66876Q155.76422 349.59064 154.6236 349.59064Q153.8736 349.59064 153.2486 349.1844Q152.6236 348.7625 152.27985 348.02814Q151.9361 347.29376 151.9361 346.34064Q151.9361 345.41876 152.2486 344.65314Q152.5611 343.8875 153.1861 343.4969Q153.8111 343.09064 154.57672 343.09064Q155.13922 343.09064 155.57672 343.325Q156.01422 343.5594 156.29547 343.9344L156.29547 340.85626L157.34235 340.85626L157.34235 349.45L156.35797 349.45ZM153.02985 346.34064Q153.02985 347.54376 153.52985 348.1375Q154.02985 348.71564 154.71735 348.71564Q155.40485 348.71564 155.88922 348.15314Q156.3736 347.59064 156.3736 346.4344Q156.3736 345.15314 155.8736 344.5594Q155.38922 343.96564 154.67047 343.96564Q153.96735 343.96564 153.4986 344.54376Q153.02985 345.10626 153.02985 346.34064ZM161.34235 351.98126Q160.46735 350.8719 159.85797 349.40314Q159.26422 347.91876 159.26422 346.34064Q159.26422 344.95 159.70172 343.66876Q160.23297 342.1844 161.34235 340.71564L162.09235 340.71564Q161.38922 341.9344 161.15485 342.45Q160.79547 343.2625 160.59235 344.1375Q160.34235 345.23126 160.34235 346.34064Q160.34235 349.16876 162.09235 351.98126L161.34235 351.98126ZM166.9986 349.45L165.95172 349.45L165.95172 342.73126Q165.5611 343.09064 164.9361 343.46564Q164.32672 343.825 163.84235 343.9969L163.84235 342.98126Q164.71735 342.5594 165.3736 341.98126Q166.04547 341.3875 166.32672 340.825L166.9986 340.825L166.9986 349.45ZM170.6236 349.45L170.6236 348.2469L171.82672 348.2469L171.82672 349.45L170.6236 349.45ZM178.57672 348.4344L178.57672 349.45L172.88922 349.45Q172.88922 349.075 173.01422 348.71564Q173.23297 348.1375 173.70172 347.575Q174.1861 347.0125 175.09235 346.27814Q176.4986 345.1219 176.98297 344.45Q177.48297 343.77814 177.48297 343.1844Q177.48297 342.5594 177.02985 342.1375Q176.57672 341.7 175.85797 341.7Q175.09235 341.7 174.63922 342.15314Q174.1861 342.60626 174.17047 343.41876L173.09235 343.3094Q173.20172 342.09064 173.92047 341.46564Q174.65485 340.825 175.88922 340.825Q177.1236 340.825 177.84235 341.5125Q178.5611 342.2 178.5611 343.21564Q178.5611 343.73126 178.34235 344.23126Q178.13922 344.71564 177.63922 345.27814Q177.15485 345.825 176.02985 346.77814Q175.07672 347.575 174.79547 347.8719Q174.52985 348.15314 174.35797 348.4344L178.57672 348.4344ZM180.6236 349.45L180.6236 348.2469L181.82672 348.2469L181.82672 349.45L180.6236 349.45ZM188.57672 348.4344L188.57672 349.45L182.88922 349.45Q182.88922 349.075 183.01422 348.71564Q183.23297 348.1375 183.70172 347.575Q184.1861 347.0125 185.09235 346.27814Q186.4986 345.1219 186.98297 344.45Q187.48297 343.77814 187.48297 343.1844Q187.48297 342.5594 187.02985 342.1375Q186.57672 341.7 185.85797 341.7Q185.09235 341.7 184.63922 342.15314Q184.1861 342.60626 184.17047 343.41876L183.09235 343.3094Q183.20172 342.09064 183.92047 341.46564Q184.65485 340.825 185.88922 340.825Q187.1236 340.825 187.84235 341.5125Q188.5611 342.2 188.5611 343.21564Q188.5611 343.73126 188.34235 344.23126Q188.13922 344.71564 187.63922 345.27814Q187.15485 345.825 186.02985 346.77814Q185.07672 347.575 184.79547 347.8719Q184.52985 348.15314 184.35797 348.4344L188.57672 348.4344ZM191.01422 351.98126L190.26422 351.98126Q192.01422 349.16876 192.01422 346.34064Q192.01422 345.2469 191.76422 344.15314Q191.5611 343.27814 191.20172 342.46564Q190.96735 341.95 190.26422 340.71564L191.01422 340.71564Q192.10797 342.1844 192.63922 343.66876Q193.09235 344.95 193.09235 346.34064Q193.09235 347.91876 192.48297 349.40314Q191.8736 350.8719 191.01422 351.98126Z" fill-rule="nonzero"/><path fill="#000000" d="M278.09375 348.5125L278.25 349.4344Q277.79688 349.52814 277.45312 349.52814Q276.875 349.52814 276.5625 349.35626Q276.25 349.16876 276.10938 348.8719Q275.98438 348.575 275.98438 347.6219L275.98438 344.04376L275.21875 344.04376L275.21875 343.23126L275.98438 343.23126L275.98438 341.6844L277.03125 341.0594L277.03125 343.23126L278.09375 343.23126L278.09375 344.04376L277.03125 344.04376L277.03125 347.6844Q277.03125 348.1375 277.07812 348.2625Q277.14062 348.3875 277.26562 348.46564Q277.39062 348.54376 277.625 348.54376Q277.8125 348.54376 278.09375 348.5125ZM283.04688 347.45L284.14062 347.575Q283.89062 348.52814 283.1875 349.0594Q282.48438 349.59064 281.40625 349.59064Q280.04688 349.59064 279.23438 348.7469Q278.4375 347.90314 278.4375 346.3875Q278.4375 344.825 279.25 343.96564Q280.0625 343.09064 281.34375 343.09064Q282.59375 343.09064 283.375 343.9344Q284.17188 344.77814 284.17188 346.325Q284.17188 346.41876 284.17188 346.60626L279.53125 346.60626Q279.59375 347.6375 280.10938 348.1844Q280.625 348.71564 281.40625 348.71564Q281.98438 348.71564 282.39062 348.41876Q282.8125 348.10626 283.04688 347.45ZM279.59375 345.7469L283.0625 345.7469Q283.0 344.95 282.67188 344.5594Q282.15625 343.95 281.35938 343.95Q280.625 343.95 280.125 344.4344Q279.64062 344.91876 279.59375 345.7469ZM285.78125 349.45L285.78125 343.23126L286.73438 343.23126L286.73438 344.16876Q287.09375 343.5125 287.39062 343.3094Q287.70312 343.09064 288.07812 343.09064Q288.60938 343.09064 289.15625 343.41876L288.79688 344.40314Q288.40625 344.16876 288.03125 344.16876Q287.67188 344.16876 287.39062 344.3875Q287.125 344.59064 287.01562 344.96564Q286.82812 345.52814 286.82812 346.1844L286.82812 349.45L285.78125 349.45ZM289.79688 349.45L289.79688 343.23126L290.73438 343.23126L290.73438 344.10626Q291.03125 343.6375 291.51562 343.3719Q292.0 343.09064 292.625 343.09064Q293.3125 343.09064 293.75 343.3719Q294.20312 343.65314 294.375 344.16876Q295.125 343.09064 296.29688 343.09064Q297.23438 343.09064 297.71875 343.60626Q298.21875 344.10626 298.21875 345.1844L298.21875 349.45L297.17188 349.45L297.17188 345.52814Q297.17188 344.90314 297.0625 344.6219Q296.96875 344.34064 296.70312 344.16876Q296.4375 343.9969 296.0625 343.9969Q295.40625 343.9969 294.96875 344.4344Q294.54688 344.8719 294.54688 345.84064L294.54688 349.45L293.48438 349.45L293.48438 345.40314Q293.48438 344.7 293.21875 344.35626Q292.96875 343.9969 292.39062 343.9969Q291.9375 343.9969 291.5625 344.23126Q291.1875 344.46564 291.01562 344.91876Q290.84375 345.3719 290.84375 346.21564L290.84375 349.45L289.79688 349.45ZM300.79688 342.075L300.79688 340.85626L301.85938 340.85626L301.85938 342.075L300.79688 342.075ZM300.79688 349.45L300.79688 343.23126L301.85938 343.23126L301.85938 349.45L300.79688 349.45ZM303.40625 346.34064Q303.40625 344.60626 304.35938 343.77814Q305.15625 343.09064 306.3125 343.09064Q307.59375 343.09064 308.40625 343.9344Q309.23438 344.7625 309.23438 346.2469Q309.23438 347.45 308.875 348.1375Q308.51562 348.825 307.8125 349.21564Q307.125 349.59064 306.3125 349.59064Q305.01562 349.59064 304.20312 348.7625Q303.40625 347.91876 303.40625 346.34064ZM304.48438 346.34064Q304.48438 347.52814 305.0 348.1219Q305.53125 348.71564 306.3125 348.71564Q307.10938 348.71564 307.625 348.1219Q308.14062 347.52814 308.14062 346.3094Q308.14062 345.15314 307.60938 344.5594Q307.09375 343.96564 306.3125 343.96564Q305.53125 343.96564 305.0 344.5594Q304.48438 345.1375 304.48438 346.34064ZM310.79688 349.45L310.79688 343.23126L311.73438 343.23126L311.73438 344.10626Q312.42188 343.09064 313.71875 343.09064Q314.28125 343.09064 314.75 343.29376Q315.23438 343.4969 315.46875 343.825Q315.70312 344.15314 315.79688 344.59064Q315.84375 344.8875 315.84375 345.6219L315.84375 349.45L314.79688 349.45L314.79688 345.66876Q314.79688 345.0125 314.67188 344.7Q314.54688 344.3875 314.23438 344.2Q313.92188 343.9969 313.5 343.9969Q312.82812 343.9969 312.32812 344.4344Q311.84375 344.85626 311.84375 346.04376L311.84375 349.45L310.79688 349.45ZM319.8125 351.98126Q318.9375 350.8719 318.32812 349.40314Q317.73438 347.91876 317.73438 346.34064Q317.73438 344.95 318.17188 343.66876Q318.70312 342.1844 319.8125 340.71564L320.5625 340.71564Q319.85938 341.9344 319.625 342.45Q319.26562 343.2625 319.0625 344.1375Q318.8125 345.23126 318.8125 346.34064Q318.8125 349.16876 320.5625 351.98126L319.8125 351.98126ZM327.04688 348.4344L327.04688 349.45L321.35938 349.45Q321.35938 349.075 321.48438 348.71564Q321.70312 348.1375 322.17188 347.575Q322.65625 347.0125 323.5625 346.27814Q324.96875 345.1219 325.45312 344.45Q325.95312 343.77814 325.95312 343.1844Q325.95312 342.5594 325.5 342.1375Q325.04688 341.7 324.32812 341.7Q323.5625 341.7 323.10938 342.15314Q322.65625 342.60626 322.64062 343.41876L321.5625 343.3094Q321.67188 342.09064 322.39062 341.46564Q323.125 340.825 324.35938 340.825Q325.59375 340.825 326.3125 341.5125Q327.03125 342.2 327.03125 343.21564Q327.03125 343.73126 326.8125 344.23126Q326.60938 344.71564 326.10938 345.27814Q325.625 345.825 324.5 346.77814Q323.54688 347.575 323.26562 347.8719Q323.0 348.15314 322.82812 348.4344L327.04688 348.4344ZM329.09375 349.45L329.09375 348.2469L330.29688 348.2469L330.29688 349.45L329.09375 349.45ZM331.5 345.21564Q331.5 343.6844 331.8125 342.7625Q332.125 341.825 332.73438 341.325Q333.35938 340.825 334.29688 340.825Q334.98438 340.825 335.5 341.10626Q336.03125 341.3875 336.375 341.91876Q336.71875 342.4344 336.90625 343.1844Q337.09375 343.9344 337.09375 345.21564Q337.09375 346.73126 336.78125 347.65314Q336.48438 348.575 335.85938 349.09064Q335.25 349.59064 334.29688 349.59064Q333.0625 349.59064 332.34375 348.7Q331.5 347.6375 331.5 345.21564ZM332.57812 345.21564Q332.57812 347.325 333.07812 348.02814Q333.57812 348.73126 334.29688 348.73126Q335.03125 348.73126 335.51562 348.02814Q336.01562 347.325 336.01562 345.21564Q336.01562 343.09064 335.51562 342.40314Q335.03125 341.7 334.28125 341.7Q333.5625 341.7 333.125 342.3094Q332.57812 343.09064 332.57812 345.21564ZM339.09375 349.45L339.09375 348.2469L340.29688 348.2469L340.29688 349.45L339.09375 349.45ZM341.5 347.1844L342.5625 347.04376Q342.73438 347.9344 343.17188 348.34064Q343.60938 348.73126 344.23438 348.73126Q344.98438 348.73126 345.5 348.21564Q346.01562 347.7 346.01562 346.9344Q346.01562 346.21564 345.53125 345.7469Q345.0625 345.2625 344.32812 345.2625Q344.03125 345.2625 343.57812 345.3875L343.70312 344.45Q343.8125 344.46564 343.875 344.46564Q344.54688 344.46564 345.07812 344.1219Q345.625 343.7625 345.625 343.02814Q345.625 342.45 345.23438 342.075Q344.84375 341.6844 344.21875 341.6844Q343.60938 341.6844 343.1875 342.075Q342.78125 342.46564 342.67188 343.23126L341.60938 343.04376Q341.79688 341.9969 342.48438 341.41876Q343.17188 340.825 344.1875 340.825Q344.89062 340.825 345.48438 341.1375Q346.07812 341.4344 346.39062 341.95Q346.70312 342.46564 346.70312 343.0594Q346.70312 343.60626 346.40625 344.075Q346.10938 344.52814 345.53125 344.79376Q346.28125 344.96564 346.70312 345.52814Q347.125 346.075 347.125 346.91876Q347.125 348.04376 346.29688 348.825Q345.48438 349.60626 344.23438 349.60626Q343.10938 349.60626 342.35938 348.9344Q341.60938 348.2469 341.5 347.1844ZM349.48438 351.98126L348.73438 351.98126Q350.48438 349.16876 350.48438 346.34064Q350.48438 345.2469 350.23438 344.15314Q350.03125 343.27814 349.67188 342.46564Q349.4375 341.95 348.73438 340.71564L349.48438 340.71564Q350.57812 342.1844 351.10938 343.66876Q351.5625 344.95 351.5625 346.34064Q351.5625 347.91876 350.95312 349.40314Q350.34375 350.8719 349.48438 351.98126Z" fill-rule="nonzero"/><path fill="#000000" d="M429.32953 347.16876L430.36078 347.3094Q430.1889 348.3719 429.48578 348.98126Q428.78265 349.59064 427.76703 349.59064Q426.48578 349.59064 425.70453 348.7625Q424.9389 347.91876 424.9389 346.35626Q424.9389 345.35626 425.26703 344.60626Q425.61078 343.84064 426.28265 343.46564Q426.97015 343.09064 427.78265 343.09064Q428.78265 343.09064 429.42328 343.60626Q430.07953 344.10626 430.26703 345.0594L429.23578 345.21564Q429.09515 344.59064 428.72015 344.27814Q428.34515 343.95 427.8139 343.95Q427.01703 343.95 426.51703 344.52814Q426.01703 345.09064 426.01703 346.325Q426.01703 347.59064 426.5014 348.15314Q426.98578 348.71564 427.7514 348.71564Q428.3764 348.71564 428.78265 348.34064Q429.20453 347.96564 429.32953 347.16876ZM431.2514 349.45L431.2514 343.23126L432.20453 343.23126L432.20453 344.16876Q432.5639 343.5125 432.86078 343.3094Q433.17328 343.09064 433.54828 343.09064Q434.07953 343.09064 434.6264 343.41876L434.26703 344.40314Q433.8764 344.16876 433.5014 344.16876Q433.14203 344.16876 432.86078 344.3875Q432.59515 344.59064 432.48578 344.96564Q432.29828 345.52814 432.29828 346.1844L432.29828 349.45L431.2514 349.45ZM434.8764 346.34064Q434.8764 344.60626 435.82953 343.77814Q436.6264 343.09064 437.78265 343.09064Q439.0639 343.09064 439.8764 343.9344Q440.70453 344.7625 440.70453 346.2469Q440.70453 347.45 440.34515 348.1375Q439.98578 348.825 439.28265 349.21564Q438.59515 349.59064 437.78265 349.59064Q436.48578 349.59064 435.67328 348.7625Q434.8764 347.91876 434.8764 346.34064ZM435.95453 346.34064Q435.95453 347.52814 436.47015 348.1219Q437.0014 348.71564 437.78265 348.71564Q438.57953 348.71564 439.09515 348.1219Q439.61078 347.52814 439.61078 346.3094Q439.61078 345.15314 439.07953 344.5594Q438.5639 343.96564 437.78265 343.96564Q437.0014 343.96564 436.47015 344.5594Q435.95453 345.1375 435.95453 346.34064ZM441.84515 347.59064L442.8764 347.4344Q442.97015 348.0594 443.36078 348.3875Q443.76703 348.71564 444.5014 348.71564Q445.22015 348.71564 445.5639 348.4344Q445.92328 348.1375 445.92328 347.73126Q445.92328 347.3719 445.61078 347.16876Q445.39203 347.02814 444.53265 346.8094Q443.3764 346.5125 442.92328 346.3094Q442.48578 346.09064 442.2514 345.71564Q442.01703 345.34064 442.01703 344.8719Q442.01703 344.46564 442.20453 344.10626Q442.39203 343.7469 442.72015 343.5125Q442.97015 343.34064 443.39203 343.21564Q443.8139 343.09064 444.3139 343.09064Q445.03265 343.09064 445.57953 343.3094Q446.14203 343.5125 446.40765 343.8719Q446.67328 344.23126 446.76703 344.825L445.73578 344.96564Q445.67328 344.4969 445.32953 344.23126Q445.0014 343.95 444.3764 343.95Q443.65765 343.95 443.34515 344.2Q443.03265 344.4344 443.03265 344.7625Q443.03265 344.96564 443.15765 345.1219Q443.29828 345.29376 443.5639 345.40314Q443.72015 345.46564 444.5014 345.66876Q445.6264 345.98126 446.0639 346.16876Q446.5014 346.35626 446.7514 346.71564Q447.0014 347.075 447.0014 347.6219Q447.0014 348.15314 446.6889 348.6219Q446.39203 349.075 445.8139 349.34064Q445.23578 349.59064 444.5014 349.59064Q443.28265 349.59064 442.64203 349.09064Q442.01703 348.575 441.84515 347.59064ZM448.84515 347.59064L449.8764 347.4344Q449.97015 348.0594 450.36078 348.3875Q450.76703 348.71564 451.5014 348.71564Q452.22015 348.71564 452.5639 348.4344Q452.92328 348.1375 452.92328 347.73126Q452.92328 347.3719 452.61078 347.16876Q452.39203 347.02814 451.53265 346.8094Q450.3764 346.5125 449.92328 346.3094Q449.48578 346.09064 449.2514 345.71564Q449.01703 345.34064 449.01703 344.8719Q449.01703 344.46564 449.20453 344.10626Q449.39203 343.7469 449.72015 343.5125Q449.97015 343.34064 450.39203 343.21564Q450.8139 343.09064 451.3139 343.09064Q452.03265 343.09064 452.57953 343.3094Q453.14203 343.5125 453.40765 343.8719Q453.67328 344.23126 453.76703 344.825L452.73578 344.96564Q452.67328 344.4969 452.32953 344.23126Q452.0014 343.95 451.3764 343.95Q450.65765 343.95 450.34515 344.2Q450.03265 344.4344 450.03265 344.7625Q450.03265 344.96564 450.15765 345.1219Q450.29828 345.29376 450.5639 345.40314Q450.72015 345.46564 451.5014 345.66876Q452.6264 345.98126 453.0639 346.16876Q453.5014 346.35626 453.7514 346.71564Q454.0014 347.075 454.0014 347.6219Q454.0014 348.15314 453.6889 348.6219Q453.39203 349.075 452.8139 349.34064Q452.23578 349.59064 451.5014 349.59064Q450.28265 349.59064 449.64203 349.09064Q449.01703 348.575 448.84515 347.59064ZM458.5639 348.5125L458.72015 349.4344Q458.26703 349.52814 457.92328 349.52814Q457.34515 349.52814 457.03265 349.35626Q456.72015 349.16876 456.57953 348.8719Q456.45453 348.575 456.45453 347.6219L456.45453 344.04376L455.6889 344.04376L455.6889 343.23126L456.45453 343.23126L456.45453 341.6844L457.5014 341.0594L457.5014 343.23126L458.5639 343.23126L458.5639 344.04376L457.5014 344.04376L457.5014 347.6844Q457.5014 348.1375 457.54828 348.2625Q457.61078 348.3875 457.73578 348.46564Q457.86078 348.54376 458.09515 348.54376Q458.28265 348.54376 458.5639 348.5125ZM463.51703 347.45L464.61078 347.575Q464.36078 348.52814 463.65765 349.0594Q462.95453 349.59064 461.8764 349.59064Q460.51703 349.59064 459.70453 348.7469Q458.90765 347.90314 458.90765 346.3875Q458.90765 344.825 459.72015 343.96564Q460.53265 343.09064 461.8139 343.09064Q463.0639 343.09064 463.84515 343.9344Q464.64203 344.77814 464.64203 346.325Q464.64203 346.41876 464.64203 346.60626L460.0014 346.60626Q460.0639 347.6375 460.57953 348.1844Q461.09515 348.71564 461.8764 348.71564Q462.45453 348.71564 462.86078 348.41876Q463.28265 348.10626 463.51703 347.45ZM460.0639 345.7469L463.53265 345.7469Q463.47015 344.95 463.14203 344.5594Q462.6264 343.95 461.82953 343.95Q461.09515 343.95 460.59515 344.4344Q460.11078 344.91876 460.0639 345.7469ZM466.2514 349.45L466.2514 343.23126L467.20453 343.23126L467.20453 344.16876Q467.5639 343.5125 467.86078 343.3094Q468.17328 343.09064 468.54828 343.09064Q469.07953 343.09064 469.6264 343.41876L469.26703 344.40314Q468.8764 344.16876 468.5014 344.16876Q468.14203 344.16876 467.86078 344.3875Q467.59515 344.59064 467.48578 344.96564Q467.29828 345.52814 467.29828 346.1844L467.29828 349.45L466.2514 349.45ZM470.26703 349.45L470.26703 343.23126L471.20453 343.23126L471.20453 344.10626Q471.5014 343.6375 471.98578 343.3719Q472.47015 343.09064 473.09515 343.09064Q473.78265 343.09064 474.22015 343.3719Q474.67328 343.65314 474.84515 344.16876Q475.59515 343.09064 476.76703 343.09064Q477.70453 343.09064 478.1889 343.60626Q478.6889 344.10626 478.6889 345.1844L478.6889 349.45L477.64203 349.45L477.64203 345.52814Q477.64203 344.90314 477.53265 344.6219Q477.4389 344.34064 477.17328 344.16876Q476.90765 343.9969 476.53265 343.9969Q475.8764 343.9969 475.4389 344.4344Q475.01703 344.8719 475.01703 345.84064L475.01703 349.45L473.95453 349.45L473.95453 345.40314Q473.95453 344.7 473.6889 344.35626Q473.4389 343.9969 472.86078 343.9969Q472.40765 343.9969 472.03265 344.23126Q471.65765 344.46564 471.48578 344.91876Q471.3139 345.3719 471.3139 346.21564L471.3139 349.45L470.26703 349.45ZM483.28265 351.98126Q482.40765 350.8719 481.79828 349.40314Q481.20453 347.91876 481.20453 346.34064Q481.20453 344.95 481.64203 343.66876Q482.17328 342.1844 483.28265 340.71564L484.03265 340.71564Q483.32953 341.9344 483.09515 342.45Q482.73578 343.2625 482.53265 344.1375Q482.28265 345.23126 482.28265 346.34064Q482.28265 349.16876 484.03265 351.98126L483.28265 351.98126ZM484.97015 345.21564Q484.97015 343.6844 485.28265 342.7625Q485.59515 341.825 486.20453 341.325Q486.82953 340.825 487.76703 340.825Q488.45453 340.825 488.97015 341.10626Q489.5014 341.3875 489.84515 341.91876Q490.1889 342.4344 490.3764 343.1844Q490.5639 343.9344 490.5639 345.21564Q490.5639 346.73126 490.2514 347.65314Q489.95453 348.575 489.32953 349.09064Q488.72015 349.59064 487.76703 349.59064Q486.53265 349.59064 485.8139 348.7Q484.97015 347.6375 484.97015 345.21564ZM486.04828 345.21564Q486.04828 347.325 486.54828 348.02814Q487.04828 348.73126 487.76703 348.73126Q488.5014 348.73126 488.98578 348.02814Q489.48578 347.325 489.48578 345.21564Q489.48578 343.09064 488.98578 342.40314Q488.5014 341.7 487.7514 341.7Q487.03265 341.7 486.59515 342.3094Q486.04828 343.09064 486.04828 345.21564ZM492.5639 349.45L492.5639 348.2469L493.76703 348.2469L493.76703 349.45L492.5639 349.45ZM500.51703 348.4344L500.51703 349.45L494.82953 349.45Q494.82953 349.075 494.95453 348.71564Q495.17328 348.1375 495.64203 347.575Q496.1264 347.0125 497.03265 346.27814Q498.4389 345.1219 498.92328 344.45Q499.42328 343.77814 499.42328 343.1844Q499.42328 342.5594 498.97015 342.1375Q498.51703 341.7 497.79828 341.7Q497.03265 341.7 496.57953 342.15314Q496.1264 342.60626 496.11078 343.41876L495.03265 343.3094Q495.14203 342.09064 495.86078 341.46564Q496.59515 340.825 497.82953 340.825Q499.0639 340.825 499.78265 341.5125Q500.5014 342.2 500.5014 343.21564Q500.5014 343.73126 500.28265 344.23126Q500.07953 344.71564 499.57953 345.27814Q499.09515 345.825 497.97015 346.77814Q497.01703 347.575 496.73578 347.8719Q496.47015 348.15314 496.29828 348.4344L500.51703 348.4344ZM502.03265 341.98126L502.03265 340.96564L507.59515 340.96564L507.59515 341.79376Q506.78265 342.66876 505.97015 344.1219Q505.17328 345.5594 504.73578 347.09064Q504.40765 348.16876 504.32953 349.45L503.23578 349.45Q503.2514 348.4344 503.6264 346.9969Q504.01703 345.5594 504.72015 344.23126Q505.4389 342.90314 506.2514 341.98126L502.03265 341.98126ZM509.5639 349.45L509.5639 348.2469L510.76703 348.2469L510.76703 349.45L509.5639 349.45ZM511.97015 345.21564Q511.97015 343.6844 512.28265 342.7625Q512.59515 341.825 513.2045 341.325Q513.8295 340.825 514.767 340.825Q515.4545 340.825 515.97015 341.10626Q516.5014 341.3875 516.84515 341.91876Q517.1889 342.4344 517.3764 343.1844Q517.5639 343.9344 517.5639 345.21564Q517.5639 346.73126 517.2514 347.65314Q516.9545 348.575 516.3295 349.09064Q515.72015 349.59064 514.767 349.59064Q513.53265 349.59064 512.8139 348.7Q511.97015 347.6375 511.97015 345.21564ZM513.0483 345.21564Q513.0483 347.325 513.5483 348.02814Q514.0483 348.73126 514.767 348.73126Q515.5014 348.73126 515.9858 348.02814Q516.4858 347.325 516.4858 345.21564Q516.4858 343.09064 515.9858 342.40314Q515.5014 341.7 514.7514 341.7Q514.03265 341.7 513.59515 342.3094Q513.0483 343.09064 513.0483 345.21564ZM519.9545 351.98126L519.2045 351.98126Q520.9545 349.16876 520.9545 346.34064Q520.9545 345.2469 520.7045 344.15314Q520.5014 343.27814 520.142 342.46564Q519.90765 341.95 519.2045 340.71564L519.9545 340.71564Q521.0483 342.1844 521.5795 343.66876Q522.03265 344.95 522.03265 346.34064Q522.03265 347.91876 521.4233 349.40314Q520.8139 350.8719 519.9545 351.98126Z" fill-rule="nonzero"/></svg>